<?xml version="1.0" encoding="UTF-8" standalone="no"?>
<!-- Created with Inkscape (http://www.inkscape.org/) -->

<svg
   width="210mm"
   height="297mm"
   viewBox="0 0 210 297"
   version="1.1"
   id="svg5"
   xmlns="http://www.w3.org/2000/svg"
   xmlns:svg="http://www.w3.org/2000/svg">
  <defs
     id="defs2" />
  <g
     id="layer1">
    <rect
       style="fill:#30e2e2;fill-opacity:1;fill-rule:evenodd;stroke-width:0.264583"
       id="rect33"
       width="211.77708"
       height="297.9144"
       x="-0.36576366"
       y="0.1828832"
       ry="0" />
    <path
       style="opacity:0.586319;fill:#22cccc;fill-opacity:1"
       id="path1584-0"
       d="M 57.413724,35.121772 A 25.459751,25.459751 0 0 1 32.199552,60.799442 25.459751,25.459751 0 0 1 6.4965985,35.611044 25.459751,25.459751 0 0 1 31.659197,9.8828324 25.459751,25.459751 0 0 1 57.41264,35.019605 l -25.457724,0.321261 z" />
    <path
       style="opacity:0.586319;fill:#22cccc;fill-opacity:1"
       id="path1584-0-8"
       d="m 220.15115,11.451074 a 21.862177,21.862177 0 0 1 -21.6513,22.049302 21.862177,21.862177 0 0 1 -22.07102,-21.629167 21.862177,21.862177 0 0 1 21.60702,-22.092702 21.862177,21.862177 0 0 1 22.11437,21.584837 l -21.86044,0.275865 z" />
    <path
       style="opacity:0.586319;fill:#22cccc;fill-opacity:1"
       id="path1584-0-8-8"
       d="M 61.222955,264.95413 A 24.190018,24.190018 0 0 1 37.266268,289.35119 24.190018,24.190018 0 0 1 12.845177,265.419 24.190018,24.190018 0 0 1 36.752861,240.97391 24.190018,24.190018 0 0 1 61.221924,264.85705 l -24.188091,0.30524 z" />
    <path
       style="opacity:0.586319;fill:#22cccc;fill-opacity:1"
       id="path1584-0-8-8-9"
       d="M 173.5942,82.747613 A 24.190018,24.190018 0 0 1 149.63751,107.14468 24.190018,24.190018 0 0 1 125.21642,83.212483 24.190018,24.190018 0 0 1 149.1241,58.767394 24.190018,24.190018 0 0 1 173.59317,82.650541 l -24.18809,0.305239 z" />
    <path
       style="opacity:0.586319;fill:#22cccc;fill-opacity:1"
       id="path1584-0-8-8-9-1"
       d="m 85.982986,156.66379 a 17.206493,17.206493 0 0 1 -17.040523,17.35377 17.206493,17.206493 0 0 1 -17.370857,-17.02311 17.206493,17.206493 0 0 1 17.005668,-17.38792 17.206493,17.206493 0 0 1 17.40498,16.98821 l -17.205124,0.21712 z" />
    <path
       style="opacity:0.586319;fill:#22cccc;fill-opacity:1"
       id="path1584-0-8-8-9-1-0"
       d="m 159.41579,295.27615 a 17.206493,17.206493 0 0 1 -17.04053,17.35377 17.206493,17.206493 0 0 1 -17.37085,-17.0231 17.206493,17.206493 0 0 1 17.00566,-17.38793 17.206493,17.206493 0 0 1 17.40498,16.98822 l -17.20512,0.21711 z" />
    <path
       style="opacity:0.586319;fill:#22cccc;fill-opacity:1"
       id="path1584-0-8-8-9-1-0-6"
       d="m 174.22924,179.4989 a 19.534334,19.534334 0 0 1 -19.34591,19.70154 19.534334,19.534334 0 0 1 -19.72093,-19.32614 19.534334,19.534334 0 0 1 19.30634,-19.74031 19.534334,19.534334 0 0 1 19.75967,19.28653 l -19.53278,0.24649 z" />
  </g>
</svg>
