<?xml version="1.0" encoding="UTF-8" standalone="no"?>
<svg
   id="ba0f8606-0ac8-4f5e-b50c-0b5104edb39e"
   data-name="Layer 1"
   width="890"
   height="641"
   viewBox="0 0 890 641"
   version="1.1"
   xmlns="http://www.w3.org/2000/svg"
   xmlns:svg="http://www.w3.org/2000/svg">
  <defs
     id="defs141" />
  <path
     id="e17a72e2-051a-4020-aba1-9f6eb9c0d39e"
     data-name="Path 133"
     d="M633.92226,746.82993a76.67275,76.67275,0,0,1-3.58207,21.19472c-.04841.15925-.10214.3161-.15442.47535H616.81932c.014-.14279.02855-.30207.0426-.47535.89116-10.2457-4.20022-71.86071-10.344-82.52465C607.05623,686.36505,634.95863,714.2747,633.92226,746.82993Z"
     transform="translate(-155 -129.5)"
     fill="#f1f1f1" />
  <path
     id="eeb1bfad-c599-4325-99ca-33d947eaa4a4"
     data-name="Path 134"
     d="M632.91925,768.02465c-.11181.15925-.228.31853-.34708.47535H622.54431c.076-.13555.16409-.2948.26622-.47535,1.65647-2.98959,6.55955-11.92831,11.11072-21.19472,4.889-9.95816,9.37825-20.29389,9.00019-24.03472C643.0386,723.63843,646.42316,749.35868,632.91925,768.02465Z"
     transform="translate(-155 -129.5)"
     fill="#f1f1f1" />
  <path
     id="ae98919c-3cd0-4dbe-b2ac-5e07dd542ed3"
     data-name="Path 133"
     d="M991.11346,754.14032A50.80739,50.80739,0,0,1,988.7398,768.185c-.03208.10553-.06768.20946-.10233.315h-8.85729c.0093-.09462.01893-.20016.02824-.315.59052-6.78932-2.78328-47.61854-6.85443-54.685C973.31067,714.07322,991.80021,732.56757,991.11346,754.14032Z"
     transform="translate(-155 -129.5)"
     fill="#f1f1f1" />
  <path
     id="a16e0e44-34bc-470c-a8b9-bb95dad5f0bc"
     data-name="Path 134"
     d="M990.44882,768.185c-.0741.10553-.15109.21107-.23.315h-6.645c.05037-.08982.10874-.19535.17642-.315,1.09766-1.981,4.34669-7.9043,7.36252-14.04469,3.23973-6.59879,6.2145-13.44776,5.964-15.92662C997.15441,738.77245,999.39719,755.816,990.44882,768.185Z"
     transform="translate(-155 -129.5)"
     fill="#f1f1f1" />
  <path
     id="a04afbcd-fd0f-46da-9369-89d0f07bdf03"
     data-name="Path 133"
     d="M564.11346,754.14032A50.80739,50.80739,0,0,1,561.7398,768.185c-.03208.10553-.06768.20946-.10233.315h-8.85729c.0093-.09462.01893-.20016.02824-.315.59052-6.78932-2.78328-47.61854-6.85443-54.685C546.31067,714.07322,564.80021,732.56757,564.11346,754.14032Z"
     transform="translate(-155 -129.5)"
     fill="#f1f1f1" />
  <path
     id="a6089e43-5613-4c9c-8352-b83c87f66fb2"
     data-name="Path 134"
     d="M563.44882,768.185c-.0741.10553-.15109.21107-.23.315h-6.645c.05037-.08982.10874-.19535.17642-.315,1.09766-1.981,4.34669-7.9043,7.36252-14.04469,3.23973-6.59879,6.2145-13.44776,5.964-15.92662C570.15441,738.77245,572.39719,755.816,563.44882,768.185Z"
     transform="translate(-155 -129.5)"
     fill="#f1f1f1" />
  <path
     d="M373.47345,129.5l-99.2507,163.458L561.116,467.15784l99.2507-163.458Z"
     transform="translate(-155 -129.5)"
     fill="#fff"
     id="path82" />
  <path
     d="M373.47345,129.5l-99.2507,163.458L561.116,467.15784l99.2507-163.458ZM559.25332,459.53647,281.84413,291.09529l93.492-153.97392L652.74535,305.56255Z"
     transform="translate(-155 -129.5)"
     fill="#e5e5e5"
     id="path84" />
  <rect
     x="479.58177"
     y="108.05089"
     width="5.54775"
     height="329.16632"
     transform="matrix(0.51901, -0.85477, 0.85477, 0.51901, -156.03068, 413.93648)"
     fill="#e5e5e5"
     id="rect86" />
  <rect
     x="440.10243"
     y="173.07021"
     width="5.54775"
     height="329.16632"
     transform="translate(-230.59629 411.46444) rotate(-58.73413)"
     fill="#e5e5e5"
     id="rect88" />
  <rect
     x="308.84735"
     y="257.40384"
     width="191.23079"
     height="5.54775"
     transform="translate(-182.8491 341.36473) rotate(-58.73413)"
     fill="#e5e5e5"
     id="rect90" />
  <polygon
     points="455.575 143.967 356.325 307.425 351.386 304.87 450.833 141.087 455.575 143.967"
     fill="#e5e5e5"
     id="polygon92" />
  <polygon
     points="358.537 308.768 356.325 307.425 351.386 304.87 351.203 304.315 348.503 296.185 328.53 236.083 325.83 227.953 291.49 124.599 288.789 116.469 279.082 87.242 276.787 80.332 260.786 32.182 258.085 24.052 265.42 28.505 268.12 36.635 280.569 74.104 282.863 81.014 296.124 120.923 298.824 129.053 333.164 232.407 335.865 240.537 355.172 298.634 355.837 300.639 357.467 305.544 358.537 308.768"
     fill="#e5e5e5"
     id="polygon94" />
  <path
     d="M502.45261,384.40067h-2.76478V308.66049a43.83635,43.83635,0,0,0-43.83631-43.83639H295.38562a43.83634,43.83634,0,0,0-43.83643,43.83626V724.177a43.83635,43.83635,0,0,0,43.83631,43.83639H455.85131a43.83636,43.83636,0,0,0,43.83648-43.83622V438.31383h2.76482Z"
     transform="translate(-155 -129.5)"
     fill="#3f3d56"
     id="path96" />
  <path
     d="M457.62017,276.22881h-20.9461a15.55305,15.55305,0,0,1-14.4,21.427H330.34525a15.553,15.553,0,0,1-14.4-21.427H296.38154A32.73651,32.73651,0,0,0,263.645,308.96524v414.907a32.7365,32.7365,0,0,0,32.73648,32.73652H457.62017a32.7365,32.7365,0,0,0,32.73652-32.73648h0v-414.907A32.73647,32.73647,0,0,0,457.62017,276.22881Z"
     transform="translate(-155 -129.5)"
     fill="#fff"
     id="path98" />
  <rect
     x="187.45579"
     y="262.96512"
     width="69.09012"
     height="16.67207"
     fill="#6be5e5"
     style="isolation:isolate"
     id="rect100" />
  <rect
     x="184.16654"
     y="334.60431"
     width="75.66863"
     height="16.67207"
     fill="#e5e5e5"
     id="rect102" />
  <rect
     x="137.55826"
     y="370.41799"
     width="168.88519"
     height="16.67207"
     fill="#e5e5e5"
     id="rect104" />
  <rect
     x="137.55826"
     y="406.23167"
     width="168.88519"
     height="16.67207"
     fill="#e5e5e5"
     id="rect106" />
  <rect
     x="187.4558"
     y="485.61019"
     width="69.09011"
     height="25.26218"
     fill="#6be5e5"
     id="rect108" />
  <circle
     cx="373.69597"
     cy="129.40877"
     r="7.64538"
     fill="#6be5e5"
     id="circle110" />
</svg>
